<?xml version="1.0" encoding="utf-8"?>
<!-- Generator: Adobe Illustrator 16.0.0, SVG Export Plug-In . SVG Version: 6.00 Build 0)  -->
<!DOCTYPE svg PUBLIC "-//W3C//DTD SVG 1.1//EN" "http://www.w3.org/Graphics/SVG/1.1/DTD/svg11.dtd">
<svg version="1.1" id="Layer_1" xmlns="http://www.w3.org/2000/svg" xmlns:xlink="http://www.w3.org/1999/xlink" x="0px" y="0px"
	 width="720px" height="720px" viewBox="0 0 720 720" style="enable-background:new 0 0 720 720;" xml:space="preserve">
<style type="text/css">
<![CDATA[
	.st0{fill:#FFFFFF;}
	.st1{fill:#6BC5EF;}
]]>
</style>
<g>
	<path class="st1" d="M217.3,332.2l4.6,0c1.1,0,1.7,0,2.9,0.6l-3.1-3.4c-1.2-1.2-2.9-1.9-4.5-1.9h0c-1.6,0-3.2,0.6-4.5,1.9l-3.1,3.4
		c1.2-0.6,1.8-0.6,2.9-0.6L217.3,332.2L217.3,332.2z"/>
	<path class="st1" d="M226.8,343.3c-0.1-0.8-0.5-1.5-1.1-2.1l-5.6-5.7c-0.6-0.6-1.3-1-2.1-1.1c-0.5-0.1-0.9-0.1-1.4,0
		c-0.8,0.1-1.5,0.5-2.1,1.1l-5.6,5.7c-0.6,0.6-1,1.3-1.1,2.1c-0.1,0.5-0.1,0.9,0,1.4c0.1,0.8,0.5,1.5,1.1,2.1l5.6,5.7
		c0.6,0.6,1.3,1,2.1,1.1c0.5,0.1,0.9,0.1,1.4,0c0.8-0.1,1.5-0.5,2.1-1.1l5.6-5.7c0.6-0.6,1-1.3,1.1-2.1
		C226.9,344.2,226.9,343.7,226.8,343.3"/>
	<path class="st1" d="M217.4,355.8l-4.6,0c-1.1,0-1.7,0-2.9-0.6l3.1,3.4c1.2,1.2,2.8,1.9,4.5,1.9h0c1.6,0,3.2-0.6,4.5-1.9l3.1-3.4
		c-1.2,0.6-1.8,0.6-2.9,0.6L217.4,355.8L217.4,355.8z"/>
	<path class="st1" d="M205.6,343.9v-4.7c0-1.1,0-1.8,0.6-2.9l-3.4,3.1c-1.2,1.2-1.9,2.9-1.9,4.5v0c0,1.6,0.6,3.3,1.9,4.5l3.4,3.1
		c-0.6-1.2-0.6-1.8-0.6-2.9V343.9L205.6,343.9z"/>
	<path class="st1" d="M229,343.9l0,4.7c0,1.1,0,1.8-0.6,2.9l3.4-3.1c1.2-1.2,1.9-2.9,1.9-4.5v0c0-1.6-0.6-3.3-1.9-4.5l-3.4-3.1
		c0.6,1.2,0.6,1.8,0.6,2.9L229,343.9L229,343.9z"/>
	<path class="st0" d="M238.3,360.5v-32.8h9.5v3.6c2-2.5,5.4-4.3,9.4-4.3c7,0,10.8,5.2,10.8,11.8v21.8h-9.5v-19.7
		c0-2.8-0.9-5.5-4.7-5.5c-3.4,0-6,2.3-6,6.5v18.7H238.3z"/>
	<path class="st0" d="M288.3,334.7c-4.6,0-7,3.5-7,8.1c0,4.7,2.4,8.3,7,8.3c4.6,0,7.3-3.6,7.3-8.3
		C295.6,338.3,293,334.7,288.3,334.7 M295.6,354.5c-2,2.8-5.6,4.3-9.6,4.3c-8.7,0-14.6-6.9-14.6-15.9c0-8.9,6-16,14.6-16
		c4.1,0,7.6,1.5,9.6,4.4v-3.7h9.5v26.5c0,5-0.8,9.2-3.7,12.4c-3.6,4.1-9.3,5.2-14.6,5.2c-5.8,0-10.6-1.3-14.7-4l3.9-7.1
		c2.3,1.8,6.3,3.2,10.5,3.2c5.3,0,9.2-2,9.2-7.4V354.5z"/>
	<path class="st0" d="M325.3,334.8c-4.5,0-7,3.9-7,9.3c0,5.4,2.5,9.3,7,9.3c4.6,0,7.1-3.9,7.1-9.3
		C332.4,338.7,330,334.8,325.3,334.8 M325.3,361.2c-10.3,0-17-6.9-17-17.1c0-10.3,6.7-17.2,17-17.2c10.4,0,17,6.9,17,17.2
		C342.4,354.3,335.7,361.2,325.3,361.2"/>
</g>
<g>
	<path class="st1" d="M379.8,332.2l4.6,0c1.1,0,1.7,0,2.9,0.6l-3.1-3.4c-1.2-1.2-2.8-1.9-4.5-1.9h0c-1.6,0-3.2,0.6-4.4,1.9l-3.1,3.4
		c1.2-0.6,1.8-0.6,2.9-0.6L379.8,332.2L379.8,332.2z"/>
	<path class="st1" d="M389.3,343.3c-0.1-0.8-0.5-1.5-1.1-2.1l-5.6-5.7c-0.6-0.6-1.3-1-2.1-1.1c-0.5-0.1-0.9-0.1-1.4,0
		c-0.8,0.1-1.5,0.5-2.1,1.1l-5.6,5.7c-0.6,0.6-1,1.3-1.1,2.1c-0.1,0.5-0.1,0.9,0,1.4c0.1,0.8,0.5,1.5,1.1,2.1l5.6,5.7
		c0.6,0.6,1.3,1,2.1,1.1c0.5,0.1,0.9,0.1,1.4,0c0.8-0.1,1.5-0.5,2.1-1.1l5.6-5.7c0.6-0.6,1-1.3,1.1-2.1
		C389.4,344.2,389.4,343.7,389.3,343.3"/>
	<path class="st1" d="M379.9,355.8l-4.6,0c-1.1,0-1.7,0-2.9-0.6l3.1,3.4c1.2,1.2,2.8,1.9,4.5,1.9h0c1.6,0,3.2-0.6,4.5-1.9l3.1-3.4
		c-1.2,0.6-1.8,0.6-2.9,0.6L379.9,355.8L379.9,355.8z"/>
	<path class="st1" d="M368.1,343.9v-4.7c0-1.1,0-1.8,0.6-2.9l-3.4,3.1c-1.2,1.2-1.9,2.9-1.9,4.5v0c0,1.6,0.6,3.3,1.9,4.5l3.4,3.1
		c-0.6-1.2-0.6-1.8-0.6-2.9V343.9L368.1,343.9z"/>
	<path class="st1" d="M391.5,343.9l0,4.7c0,1.1,0,1.8-0.6,2.9l3.4-3.1c1.2-1.2,1.9-2.9,1.9-4.5v0c0-1.6-0.6-3.3-1.9-4.5l-3.4-3.1
		c0.6,1.2,0.6,1.8,0.6,2.9L391.5,343.9L391.5,343.9z"/>
	<path class="st0" d="M438.1,360.5v-32.8h9.5v3.6c2-2.5,5.3-4.3,9.4-4.3c7,0,10.8,5.2,10.8,11.8v21.8h-9.5v-19.7
		c0-2.8-0.9-5.5-4.7-5.5c-3.4,0-6,2.3-6,6.5v18.7H438.1z"/>
	<path class="st0" d="M488.1,334.7c-4.6,0-7,3.5-7,8.1c0,4.7,2.4,8.3,7,8.3c4.6,0,7.3-3.6,7.3-8.3
		C495.4,338.3,492.9,334.7,488.1,334.7 M495.4,354.5c-2,2.8-5.6,4.3-9.6,4.3c-8.7,0-14.6-6.9-14.6-15.9c0-8.9,6-16,14.6-16
		c4.1,0,7.6,1.5,9.6,4.4v-3.7h9.5v26.5c0,5-0.8,9.2-3.7,12.4c-3.6,4.1-9.3,5.2-14.6,5.2c-5.8,0-10.6-1.3-14.7-4l3.9-7.1
		c2.3,1.8,6.3,3.2,10.5,3.2c5.3,0,9.2-2,9.2-7.4V354.5z"/>
	<path class="st0" d="M417.8,334.8c-4.5,0-7,3.9-7,9.3c0,5.4,2.5,9.3,7,9.3c4.6,0,7.1-3.9,7.1-9.3
		C424.9,338.7,422.4,334.8,417.8,334.8 M417.8,361.2c-10.3,0-17-6.9-17-17.1c0-10.3,6.7-17.2,17-17.2c10.4,0,17,6.9,17,17.2
		C434.8,354.3,428.2,361.2,417.8,361.2"/>
</g>
<g>
	<path class="st0" d="M354.2,328.1c0,0.7-0.6,1.3-1.3,1.3c-0.7,0-1.3-0.6-1.3-1.3s0.6-1.3,1.3-1.3
		C353.6,326.8,354.2,327.4,354.2,328.1z"/>
	<path class="st0" d="M354.2,333.4c0,0.7-0.6,1.3-1.3,1.3c-0.7,0-1.3-0.6-1.3-1.3c0-0.7,0.6-1.3,1.3-1.3
		C353.6,332.1,354.2,332.7,354.2,333.4z"/>
	<path class="st0" d="M354.2,322.8c0,0.7-0.6,1.3-1.3,1.3c-0.7,0-1.3-0.6-1.3-1.3c0-0.7,0.6-1.3,1.3-1.3
		C353.6,321.5,354.2,322.1,354.2,322.8z"/>
	<path class="st0" d="M354.2,338.7c0,0.7-0.6,1.3-1.3,1.3c-0.7,0-1.3-0.6-1.3-1.3c0-0.7,0.6-1.3,1.3-1.3
		C353.6,337.4,354.2,338,354.2,338.7z"/>
	<path class="st0" d="M354.2,344c0,0.7-0.6,1.3-1.3,1.3c-0.7,0-1.3-0.6-1.3-1.3c0-0.7,0.6-1.3,1.3-1.3
		C353.6,342.7,354.2,343.3,354.2,344z"/>
	<path class="st0" d="M354.2,349.3c0,0.7-0.6,1.3-1.3,1.3c-0.7,0-1.3-0.6-1.3-1.3s0.6-1.3,1.3-1.3
		C353.6,348.1,354.2,348.6,354.2,349.3z"/>
	<path class="st0" d="M354.2,354.6c0,0.7-0.6,1.3-1.3,1.3c-0.7,0-1.3-0.6-1.3-1.3c0-0.7,0.6-1.3,1.3-1.3
		C353.6,353.4,354.2,353.9,354.2,354.6z"/>
	<path class="st0" d="M354.2,359.9c0,0.7-0.6,1.3-1.3,1.3c-0.7,0-1.3-0.6-1.3-1.3c0-0.7,0.6-1.3,1.3-1.3
		C353.6,358.7,354.2,359.2,354.2,359.9z"/>
	<path class="st0" d="M354.2,365.2c0,0.7-0.6,1.3-1.3,1.3c-0.7,0-1.3-0.6-1.3-1.3c0-0.7,0.6-1.3,1.3-1.3
		C353.6,364,354.2,364.5,354.2,365.2z"/>
</g>
<g>
	<path class="st0" d="M503.9,369.3v2.3h-0.4v-2.3h-0.9V369h2.2v0.3H503.9z"/>
	<path class="st0" d="M507.6,371.6v-2.2l-0.9,2.2h-0.3l-0.9-2.2v2.2h-0.4V369h0.6l0.8,2.2l0.8-2.2h0.5v2.6H507.6z"/>
</g>
</svg>
