<?xml version="1.0" encoding="utf-8"?>
<!-- Generator: Adobe Illustrator 16.0.0, SVG Export Plug-In . SVG Version: 6.00 Build 0)  -->
<!DOCTYPE svg PUBLIC "-//W3C//DTD SVG 1.1//EN" "http://www.w3.org/Graphics/SVG/1.1/DTD/svg11.dtd">
<svg version="1.1" id="Layer_1" xmlns="http://www.w3.org/2000/svg" xmlns:xlink="http://www.w3.org/1999/xlink" x="0px" y="0px"
	 width="307.333px" height="58px" viewBox="0 0 307.333 58" enable-background="new 0 0 307.333 58" xml:space="preserve">
<path fill="#6BC5EF" d="M19.834,14.932l4.588-0.001c1.108-0.009,1.718,0.019,2.862,0.581l-3.053-3.369
	c-1.21-1.22-2.813-1.854-4.395-1.854h0.002c-1.584,0-3.184,0.634-4.393,1.854l-3.059,3.369c1.147-0.562,1.758-0.59,2.869-0.581
	l4.589,0.001H19.834z"/>
<path fill="#6BC5EF" d="M29.177,25.838c-0.135-0.775-0.489-1.513-1.077-2.107l-5.504-5.58c-0.589-0.595-1.317-0.958-2.08-1.098
	c-0.447-0.079-0.907-0.079-1.355,0.002c-0.76,0.138-1.488,0.501-2.075,1.092l-5.505,5.584c-0.587,0.595-0.947,1.331-1.08,2.102
	c-0.081,0.458-0.081,0.921,0,1.375c0.133,0.771,0.496,1.51,1.082,2.102l5.503,5.584c0.592,0.592,1.315,0.955,2.078,1.092
	c0.447,0.078,0.905,0.082,1.353,0c0.763-0.137,1.491-0.5,2.08-1.092L28.1,29.31c0.588-0.592,0.942-1.331,1.077-2.102
	C29.254,26.754,29.252,26.291,29.177,25.838"/>
<path fill="#6BC5EF" d="M19.859,38.221l-4.585,0.002c-1.111,0.006-1.723-0.02-2.866-0.582l3.053,3.367
	c1.208,1.221,2.812,1.856,4.396,1.856h-0.003c1.585,0,3.188-0.636,4.394-1.856l3.056-3.367c-1.145,0.563-1.755,0.588-2.865,0.582
	l-4.586-0.002H19.859z"/>
<path fill="#6BC5EF" d="M8.253,26.425v-4.644c-0.008-1.126,0.018-1.744,0.575-2.905L5.5,21.971
	c-1.207,1.223-1.832,2.848-1.834,4.447v-0.001c0.002,1.604,0.627,3.228,1.834,4.451l3.328,3.093
	c-0.558-1.163-0.583-1.775-0.575-2.902v-4.644V26.425z"/>
<path fill="#6BC5EF" d="M31.369,26.414l0.004,4.645c0.009,1.125-0.018,1.738-0.574,2.901l3.328-3.095
	c1.205-1.223,1.828-2.845,1.832-4.449v0.001c-0.004-1.602-0.627-3.224-1.832-4.447l-3.328-3.094
	c0.557,1.161,0.583,1.778,0.574,2.905l-0.004,4.644V26.414z"/>
<path fill="#6BC5EF" d="M180.238,14.932l4.587-0.001c1.111-0.009,1.719,0.019,2.864,0.581l-3.056-3.369
	c-1.204-1.22-2.809-1.854-4.395-1.854h0.004c-1.582,0-3.188,0.634-4.394,1.854l-3.056,3.369c1.144-0.562,1.756-0.59,2.865-0.581
	l4.588,0.001H180.238z"/>
<path fill="#6BC5EF" d="M189.583,25.838c-0.136-0.775-0.49-1.513-1.078-2.107L183,18.151c-0.592-0.595-1.318-0.958-2.078-1.098
	c-0.45-0.079-0.909-0.079-1.357,0.002c-0.759,0.138-1.488,0.501-2.074,1.092l-5.508,5.584c-0.585,0.595-0.943,1.331-1.076,2.102
	c-0.08,0.458-0.08,0.921,0,1.375c0.133,0.771,0.493,1.51,1.08,2.102l5.504,5.584c0.592,0.592,1.315,0.955,2.075,1.092
	c0.449,0.078,0.906,0.082,1.354,0c0.762-0.137,1.488-0.5,2.08-1.092l5.504-5.584c0.588-0.592,0.945-1.331,1.078-2.102
	C189.659,26.754,189.655,26.291,189.583,25.838"/>
<path fill="#6BC5EF" d="M180.264,38.221l-4.586,0.002c-1.113,0.006-1.725-0.02-2.868-0.582l3.054,3.367
	c1.211,1.221,2.811,1.856,4.396,1.856h-0.004c1.586,0,3.188-0.636,4.394-1.856l3.058-3.367c-1.146,0.563-1.756,0.588-2.867,0.582
	l-4.584-0.002H180.264z"/>
<path fill="#6BC5EF" d="M168.657,26.425v-4.644c-0.008-1.126,0.021-1.744,0.576-2.905l-3.326,3.094
	c-1.21,1.223-1.835,2.848-1.838,4.447v-0.001c0.003,1.604,0.628,3.227,1.838,4.451l3.326,3.093
	c-0.555-1.163-0.584-1.776-0.576-2.901v-4.645V26.425z"/>
<path fill="#6BC5EF" d="M191.773,26.414l0.004,4.645c0.009,1.125-0.021,1.738-0.575,2.901l3.328-3.095
	c1.202-1.223,1.828-2.845,1.832-4.449v0.001c-0.004-1.602-0.63-3.224-1.832-4.447l-3.328-3.094c0.555,1.161,0.584,1.778,0.575,2.905
	l-0.004,4.644V26.414z"/>
<g>
	<path fill="#FFFFFF" d="M40.539,42.814V10.392h9.34v3.518c1.946-2.489,5.282-4.249,9.289-4.249c6.92,0,10.677,5.104,10.677,11.601
		v21.552h-9.338V23.383c0-2.793-0.913-5.465-4.681-5.465c-3.333,0-5.947,2.252-5.947,6.436v18.46H40.539z"/>
	<path fill="#FFFFFF" d="M89.894,17.311c-4.549,0-6.915,3.457-6.915,8.016c0,4.61,2.366,8.194,6.915,8.194
		c4.555,0,7.159-3.584,7.159-8.194C97.053,20.894,94.568,17.311,89.894,17.311 M97.053,36.865c-2.005,2.734-5.521,4.246-9.524,4.246
		c-8.556,0-14.386-6.859-14.386-15.659c0-8.808,5.889-15.791,14.442-15.791c4.008,0,7.463,1.52,9.468,4.371v-3.641h9.342v26.169
		c0,4.978-0.79,9.045-3.637,12.266c-3.579,4.009-9.162,5.16-14.439,5.16c-5.709,0-10.494-1.332-14.499-3.944l3.814-6.983
		c2.251,1.824,6.258,3.152,10.379,3.152c5.221,0,9.04-2.003,9.04-7.344V36.865z"/>
	<path fill="#FFFFFF" d="M126.456,17.433c-4.49,0-6.913,3.829-6.913,9.171c0,5.339,2.423,9.167,6.913,9.167
		c4.557,0,6.98-3.828,6.98-9.167C133.436,21.262,131.012,17.433,126.456,17.433 M126.456,43.543
		c-10.189,0-16.807-6.801-16.807-16.882c0-10.14,6.617-17,16.807-17c10.256,0,16.808,6.86,16.808,17
		C143.263,36.742,136.711,43.543,126.456,43.543"/>
	<path fill="#FFFFFF" d="M237.81,42.814V10.392h9.34v3.518c1.947-2.489,5.28-4.249,9.29-4.249c6.918,0,10.678,5.104,10.678,11.601
		v21.552h-9.342V23.383c0-2.793-0.91-5.465-4.678-5.465c-3.336,0-5.948,2.252-5.948,6.436v18.46H237.81z"/>
	<path fill="#FFFFFF" d="M287.167,17.311c-4.549,0-6.916,3.457-6.916,8.016c0,4.61,2.367,8.194,6.916,8.194
		c4.556,0,7.158-3.584,7.158-8.194C294.325,20.894,291.836,17.311,287.167,17.311 M294.325,36.865
		c-2.004,2.734-5.521,4.246-9.523,4.246c-8.555,0-14.387-6.859-14.387-15.659c0-8.808,5.892-15.791,14.443-15.791
		c4.005,0,7.463,1.52,9.467,4.371v-3.641h9.342v26.169c0,4.978-0.789,9.045-3.637,12.266c-3.582,4.009-9.162,5.16-14.443,5.16
		c-5.703,0-10.49-1.332-14.498-3.944l3.818-6.983c2.25,1.824,6.254,3.152,10.377,3.152c5.223,0,9.041-2.003,9.041-7.344V36.865
		L294.325,36.865z"/>
	<path fill="#FFFFFF" d="M217.747,17.433c-4.488,0-6.91,3.829-6.91,9.171c0,5.339,2.422,9.167,6.91,9.167
		c4.559,0,6.981-3.828,6.981-9.167C224.728,21.262,222.304,17.433,217.747,17.433 M217.747,43.543
		c-10.185,0-16.807-6.801-16.807-16.882c0-10.14,6.622-17,16.807-17c10.258,0,16.81,6.86,16.81,17
		C234.555,36.742,228.004,43.543,217.747,43.543"/>
</g>
<g>
	<path fill="#FFFFFF" d="M154.909,10.818c0,0.686-0.555,1.242-1.244,1.242c-0.684,0-1.24-0.556-1.24-1.242s0.557-1.243,1.24-1.243
		C154.354,9.575,154.909,10.132,154.909,10.818z"/>
	<path fill="#FFFFFF" d="M154.909,16.06c0,0.686-0.555,1.243-1.244,1.243c-0.684,0-1.24-0.557-1.24-1.243
		c0-0.688,0.557-1.242,1.24-1.242C154.354,14.818,154.909,15.373,154.909,16.06z"/>
	<path fill="#FFFFFF" d="M154.909,5.575c0,0.687-0.555,1.244-1.244,1.244c-0.684,0-1.24-0.558-1.24-1.244
		c0-0.684,0.557-1.242,1.24-1.242C154.354,4.333,154.909,4.891,154.909,5.575z"/>
	<path fill="#FFFFFF" d="M154.909,21.302c0,0.686-0.555,1.242-1.244,1.242c-0.684,0-1.24-0.557-1.24-1.242
		c0-0.687,0.557-1.243,1.24-1.243C154.354,20.059,154.909,20.615,154.909,21.302z"/>
	<path fill="#FFFFFF" d="M154.909,26.543c0,0.685-0.555,1.242-1.244,1.242c-0.684,0-1.24-0.558-1.24-1.242
		c0-0.687,0.557-1.244,1.24-1.244C154.354,25.3,154.909,25.857,154.909,26.543z"/>
	<path fill="#FFFFFF" d="M154.909,31.784c0,0.687-0.555,1.243-1.244,1.243c-0.684,0-1.24-0.559-1.24-1.243s0.557-1.241,1.24-1.241
		C154.354,30.543,154.909,31.1,154.909,31.784z"/>
	<path fill="#FFFFFF" d="M154.909,37.027c0,0.684-0.555,1.24-1.244,1.24c-0.684,0-1.24-0.557-1.24-1.24
		c0-0.688,0.557-1.244,1.24-1.244C154.354,35.783,154.909,36.339,154.909,37.027z"/>
	<path fill="#FFFFFF" d="M154.909,42.268c0,0.686-0.555,1.242-1.244,1.242c-0.684,0-1.24-0.558-1.24-1.242
		c0-0.686,0.557-1.242,1.24-1.242C154.354,41.025,154.909,41.582,154.909,42.268z"/>
	<path fill="#FFFFFF" d="M154.909,47.51c0,0.686-0.555,1.242-1.244,1.242c-0.684,0-1.24-0.557-1.24-1.242
		c0-0.688,0.557-1.242,1.24-1.242C154.354,46.268,154.909,46.822,154.909,47.51z"/>
</g>
</svg>
