<?xml version="1.0" encoding="utf-8"?>
<!-- Generator: Adobe Illustrator 16.0.0, SVG Export Plug-In . SVG Version: 6.00 Build 0)  -->
<!DOCTYPE svg PUBLIC "-//W3C//DTD SVG 1.1//EN" "http://www.w3.org/Graphics/SVG/1.1/DTD/svg11.dtd">
<svg version="1.1" id="Layer_1" xmlns="http://www.w3.org/2000/svg" xmlns:xlink="http://www.w3.org/1999/xlink" x="0px" y="0px"
	 width="250px" height="73px" viewBox="0 0 250 73" enable-background="new 0 0 250 73" xml:space="preserve">
<g>
	<g>
		<path fill="#4FC78C" d="M35.022,12.018l9.37-0.003c2.269-0.016,3.513,0.04,5.855,1.188l-6.242-6.88
			c-2.468-2.494-5.743-3.789-8.977-3.791h0.005c-3.234,0.001-6.51,1.296-8.978,3.791l-6.242,6.88
			c2.342-1.148,3.586-1.204,5.856-1.188l9.369,0.003H35.022z"/>
		<path fill="#4FC78C" d="M54.109,34.297c-0.273-1.58-1.003-3.092-2.199-4.305L40.662,18.594c-1.2-1.218-2.69-1.957-4.24-2.239
			c-0.919-0.163-1.86-0.165-2.776,0.002c-1.553,0.28-3.038,1.023-4.237,2.231L18.16,29.992c-1.195,1.218-1.929,2.719-2.2,4.296
			c-0.167,0.931-0.167,1.877-0.003,2.81c0.274,1.576,1.012,3.081,2.207,4.291l11.246,11.403c1.205,1.217,2.688,1.959,4.24,2.233
			c0.916,0.164,1.854,0.169,2.767,0.004c1.554-0.278,3.046-1.02,4.247-2.232L51.91,41.394c1.198-1.214,1.928-2.722,2.201-4.299
			C54.269,36.166,54.265,35.223,54.109,34.297"/>
		<path fill="#4FC78C" d="M35.074,59.59l-9.37,0.002c-2.269,0.016-3.513-0.04-5.856-1.188l6.243,6.88
			c2.467,2.494,5.743,3.788,8.976,3.791h-0.004c3.234-0.002,6.51-1.297,8.977-3.791l6.242-6.88
			c-2.342,1.149-3.587,1.205-5.856,1.188l-9.37-0.002H35.074z"/>
		<path fill="#4FC78C" d="M11.37,35.493l-0.002-9.485c-0.016-2.297,0.04-3.557,1.174-5.928l-6.797,6.319
			C3.282,28.896,2.002,32.212,2,35.485v-0.004c0.002,3.274,1.282,6.589,3.745,9.088l6.797,6.318
			c-1.134-2.372-1.189-3.631-1.174-5.928l0.002-9.485V35.493z"/>
		<path fill="#4FC78C" d="M58.589,35.474l0.002,9.485c0.016,2.297-0.039,3.557-1.173,5.928l6.796-6.319
			c2.463-2.499,3.742-5.814,3.745-9.087v0.005c-0.003-3.274-1.282-6.589-3.745-9.088l-6.796-6.318
			c1.134,2.371,1.189,3.63,1.173,5.928l-0.002,9.485V35.474z"/>
	</g>
	<polygon fill="#4FC78C" points="85.38,14.104 85.38,21.518 81.386,21.518 81.386,14.129 75.021,3.696 79.639,3.696 83.408,10.385 
		87.177,3.696 91.77,3.696 	"/>
	<path fill="#4FC78C" d="M95.063,11.083c-1.847,0-2.845,1.574-2.845,3.77c0,2.197,0.998,3.77,2.845,3.77
		c1.873,0,2.871-1.573,2.871-3.77C97.935,12.657,96.936,11.083,95.063,11.083 M95.063,21.817c-4.193,0-6.914-2.795-6.914-6.939
		c0-4.169,2.721-6.989,6.914-6.989c4.219,0,6.915,2.82,6.915,6.989C101.978,19.021,99.283,21.817,95.063,21.817"/>
	<path fill="#4FC78C" d="M115.307,8.188v13.33h-3.819V20.07c-0.798,1.048-2.197,1.748-3.845,1.748c-2.82,0-4.393-2.097-4.393-4.768
		V8.188h3.844v7.963c0,1.147,0.375,2.271,1.923,2.271c1.397,0,2.471-0.923,2.471-2.646V8.188H115.307z"/>
	<path fill="#4FC78C" d="M125.14,11.983c-0.299-0.125-0.7-0.201-1.098-0.201c-1.574,0-2.846,1.174-2.846,3.87v5.865h-3.845V8.188
		h3.845v1.647c0.724-1.173,1.848-1.872,3.219-1.872c0.4,0,1.049,0.101,1.299,0.225L125.14,11.983z"/>
	<path fill="#FFFFFF" d="M85.181,34.318c1.622,0,2.596-0.8,2.596-2.372c0-1.548-0.999-2.321-2.596-2.321h-3.894v4.693H85.181z
		 M81.287,37.912v5.94h-3.994V26.03h7.938c4.093,0,6.589,2.347,6.589,5.941c0,3.595-2.472,5.941-6.589,5.941H81.287z"/>
	<path fill="#FFFFFF" d="M105.148,30.523v13.33h-3.82v-1.447c-0.798,1.047-2.197,1.747-3.843,1.747
		c-2.821,0-4.394-2.097-4.394-4.769v-8.861h3.844v7.963c0,1.147,0.375,2.271,1.922,2.271c1.398,0,2.471-0.923,2.471-2.646v-7.588
		H105.148z"/>
	<path fill="#FFFFFF" d="M113.958,40.857c1.947,0,2.87-1.646,2.87-3.644c0-1.998-0.923-3.694-2.87-3.694
		c-1.923,0-2.921,1.697-2.921,3.694C111.038,39.235,112.011,40.857,113.958,40.857 M111.038,26.03v5.966
		c0.849-1.173,2.272-1.772,3.844-1.772c3.594,0,5.966,2.995,5.966,6.94c0,3.969-2.346,6.989-5.966,6.989
		c-1.597,0-2.995-0.624-3.844-1.772v1.473h-3.843V26.03H111.038z"/>
	<path fill="#FFFFFF" d="M122.42,26.03h3.818v14.078c0,0.749,0.299,0.974,0.85,0.974c0.348,0,0.623-0.101,0.797-0.226l0.501,2.821
		c-0.525,0.274-1.323,0.424-2.098,0.424c-1.473,0-2.596-0.424-3.271-1.373c-0.499-0.698-0.598-1.473-0.598-2.844V26.03z"/>
	<path fill="#FFFFFF" d="M129.357,30.523h3.844v13.329h-3.844V30.523z M129.357,26.03h3.844v3.195h-3.844V26.03z"/>
	<path fill="#FFFFFF" d="M144.534,35.241c-0.6-1.098-1.523-1.723-2.721-1.723c-1.898,0-2.996,1.523-2.996,3.645
		c0,2.221,1.148,3.693,3.069,3.693c1.323,0,2.223-0.698,2.922-1.672l2.521,2.097c-1.124,1.523-2.922,2.871-5.741,2.871
		c-4.144,0-6.815-2.97-6.815-6.939c0-3.994,2.696-6.989,6.74-6.989c2.97,0,4.817,1.647,5.766,3.294L144.534,35.241z"/>
	<rect x="154.94" y="26.03" fill="#FFFFFF" width="3.994" height="17.822"/>
	<path fill="#FFFFFF" d="M160.98,43.852V30.523h3.845v1.448c0.799-1.023,2.172-1.747,3.819-1.747c2.845,0,4.393,2.097,4.393,4.768
		v8.861h-3.843v-7.988c0-1.147-0.376-2.246-1.923-2.246c-1.373,0-2.446,0.923-2.446,2.646v7.588H160.98z"/>
	<path fill="#FFFFFF" d="M183.995,43.004c-0.775,0.648-1.974,1.148-3.571,1.148c-1.622,0-2.895-0.5-3.692-1.673
		c-0.55-0.798-0.75-1.722-0.75-3.069v-5.991h-2.021v-2.895h2.021V26.03h3.819v4.493h3.695v2.895h-3.695v6.116
		c0,1.023,0.549,1.373,1.324,1.373c0.598,0,1.321-0.2,1.82-0.6L183.995,43.004z"/>
	<path fill="#FFFFFF" d="M193.729,35.59c-0.125-1.648-1.249-2.521-2.745-2.521c-1.573,0-2.646,0.999-2.796,2.521H193.729z
		 M190.907,30.224c4.169,0,6.591,2.796,6.591,6.665c0,0.55-0.052,0.973-0.075,1.298h-9.235c0.049,1.772,1.372,2.595,3.27,2.595
		c1.498,0,2.721-0.525,3.594-1.548l2.372,2.297c-1.573,1.772-3.594,2.621-6.165,2.621c-4.793,0-7.188-2.97-7.188-6.89
		C184.069,33.244,186.589,30.224,190.907,30.224"/>
	<path fill="#FFFFFF" d="M206.833,34.318c-0.3-0.126-0.7-0.2-1.099-0.2c-1.573,0-2.846,1.173-2.846,3.869v5.865h-3.844V30.523h3.844
		v1.647c0.723-1.173,1.847-1.872,3.219-1.872c0.4,0,1.048,0.1,1.299,0.225L206.833,34.318z"/>
	<path fill="#FFFFFF" d="M217.016,35.59c-0.124-1.648-1.248-2.521-2.746-2.521c-1.571,0-2.646,0.999-2.796,2.521H217.016z
		 M214.195,30.224c4.167,0,6.59,2.796,6.59,6.665c0,0.55-0.051,0.973-0.075,1.298h-9.236c0.051,1.772,1.374,2.595,3.271,2.595
		c1.497,0,2.721-0.525,3.594-1.548l2.372,2.297c-1.572,1.772-3.595,2.621-6.165,2.621c-4.792,0-7.189-2.97-7.189-6.89
		C207.355,33.244,209.876,30.224,214.195,30.224"/>
	<path fill="#FFFFFF" d="M227.898,44.152c-2.621,0-4.844-0.873-6.316-2.471l2.396-2.197c1.174,1.272,2.796,1.723,4.193,1.723
		c1.123,0,2.071-0.299,2.071-1.173c0-0.849-0.897-0.999-3.019-1.323c-2.571-0.4-5.044-1.224-5.044-4.169
		c0-3.021,2.621-4.318,5.668-4.318c2.844,0,4.792,1.148,5.938,2.221l-2.12,2.222c-0.773-0.849-2.372-1.523-3.995-1.523
		c-1.072,0-1.92,0.3-1.92,0.999c0,0.899,1.447,0.999,2.87,1.223c3.494,0.549,5.291,1.597,5.291,4.143
		C233.913,42.429,231.541,44.152,227.898,44.152"/>
	<path fill="#FFFFFF" d="M244.746,43.004c-0.775,0.648-1.973,1.148-3.569,1.148c-1.623,0-2.896-0.5-3.694-1.673
		c-0.55-0.798-0.749-1.722-0.749-3.069v-5.991h-2.021v-2.895h2.021V26.03h3.818v4.493h3.694v2.895h-3.694v6.116
		c0,1.023,0.55,1.373,1.323,1.373c0.6,0,1.323-0.2,1.821-0.6L244.746,43.004z"/>
	<path fill="#FFFFFF" d="M85.355,51.96h-4.069v4.692h4.043c1.473,0,2.521-0.898,2.521-2.371
		C87.852,52.783,86.803,51.96,85.355,51.96 M87.751,66.188l-3.27-6.341h-3.195v6.341h-3.994V48.366h8.162
		c4.219,0,6.465,2.296,6.465,5.59c0,2.647-1.498,4.319-3.495,5.192l3.695,7.04H87.751z"/>
	<path fill="#FFFFFF" d="M101.703,57.925c-0.124-1.647-1.248-2.521-2.745-2.521c-1.573,0-2.646,0.999-2.796,2.521H101.703z
		 M98.883,52.558c4.167,0,6.59,2.796,6.59,6.666c0,0.549-0.05,0.974-0.075,1.298h-9.236c0.05,1.771,1.374,2.596,3.271,2.596
		c1.497,0,2.72-0.525,3.594-1.548l2.372,2.298c-1.573,1.771-3.595,2.62-6.165,2.62c-4.793,0-7.189-2.97-7.189-6.889
		C92.043,55.579,94.564,52.558,98.883,52.558"/>
	<path fill="#FFFFFF" d="M113.36,55.704c-1.872,0-2.846,1.423-2.846,3.295c0,1.896,0.974,3.37,2.846,3.37
		c1.872,0,2.944-1.474,2.944-3.37C116.304,57.176,115.282,55.704,113.36,55.704 M116.304,63.741
		c-0.824,1.123-2.271,1.747-3.918,1.747c-3.519,0-5.916-2.82-5.916-6.439c0-3.62,2.421-6.491,5.941-6.491
		c1.648,0,3.07,0.625,3.894,1.797v-1.498h3.845v10.759c0,2.047-0.325,3.719-1.499,5.042c-1.472,1.647-3.769,2.122-5.94,2.122
		c-2.347,0-4.318-0.55-5.966-1.623l1.573-2.871c0.923,0.749,2.571,1.298,4.269,1.298c2.146,0,3.718-0.823,3.718-3.02V63.741z"/>
	<path fill="#FFFFFF" d="M122.144,52.857h3.845v13.331h-3.845V52.857z M122.144,48.366h3.845v3.195h-3.845V48.366z"/>
	<path fill="#FFFFFF" d="M133.451,66.486c-2.621,0-4.841-0.873-6.313-2.47l2.395-2.198c1.174,1.274,2.796,1.723,4.193,1.723
		c1.125,0,2.073-0.299,2.073-1.172c0-0.85-0.899-0.999-3.021-1.323c-2.57-0.4-5.042-1.225-5.042-4.169
		c0-3.021,2.621-4.319,5.666-4.319c2.845,0,4.792,1.149,5.941,2.222l-2.123,2.222c-0.772-0.85-2.369-1.522-3.994-1.522
		c-1.072,0-1.92,0.299-1.92,0.998c0,0.899,1.446,0.999,2.87,1.223c3.493,0.55,5.29,1.598,5.29,4.144
		C139.466,64.764,137.096,66.486,133.451,66.486"/>
	<path fill="#FFFFFF" d="M150.299,65.338c-0.772,0.649-1.972,1.148-3.568,1.148c-1.622,0-2.896-0.499-3.694-1.671
		c-0.551-0.8-0.749-1.723-0.749-3.071v-5.99h-2.021v-2.896h2.021v-4.492h3.819v4.492h3.693v2.896h-3.693v6.115
		c0,1.023,0.548,1.373,1.321,1.373c0.601,0,1.324-0.2,1.823-0.599L150.299,65.338z"/>
	<path fill="#FFFFFF" d="M159.234,56.652c-0.3-0.125-0.698-0.2-1.098-0.2c-1.572,0-2.846,1.174-2.846,3.87v5.866h-3.845V52.857
		h3.845v1.647c0.724-1.173,1.847-1.871,3.22-1.871c0.399,0,1.048,0.1,1.298,0.224L159.234,56.652z"/>
	<path fill="#FFFFFF" d="M168.97,66.587c-1.024,2.77-2.297,4.194-5.019,4.194c-1.422,0-2.472-0.4-3.42-1.099l1.398-2.521
		c0.425,0.325,0.948,0.524,1.498,0.524c0.823,0,1.273-0.5,1.622-1.273l0.274-0.624l-5.241-12.93h4.344l2.869,8.337l2.622-8.337
		h4.118L168.97,66.587z"/>
</g>
</svg>
